<svg width="24" height="24" viewBox="0 0 24 24" fill="none" xmlns="http://www.w3.org/2000/svg">
<path d="M21.2149 16.1931C20.1474 16.7507 14.6189 19.0131 13.4398 19.6345C12.2608 20.2559 11.6076 20.24 10.6835 19.7938C9.75944 19.3477 3.88034 16.9897 2.81286 16.4799C2.28709 16.225 2.01624 16.0178 2.01624 15.8107V13.7873C2.01624 13.7873 9.66384 12.1144 10.9066 11.6842C12.1493 11.2381 12.5636 11.2221 13.6151 11.6045C14.6667 11.9869 20.96 13.1181 21.9956 13.5005V15.4921C21.9956 15.6992 21.7566 15.9222 21.2149 16.1931Z" fill="#A41E11"/>
<path d="M21.2151 14.1855C20.1477 14.7431 14.6191 17.0055 13.4401 17.6269C12.2611 18.2483 11.6078 18.2323 10.6838 17.7862C9.75967 17.3401 3.88057 14.9662 2.81309 14.4563C1.76155 13.9465 1.72968 13.596 2.7653 13.1977C3.80091 12.7834 9.64814 10.4891 10.8909 10.0589C12.1336 9.61284 12.5479 9.5969 13.5994 9.97929C14.651 10.3617 20.1477 12.5444 21.1833 12.9268C22.2508 13.3092 22.2826 13.6278 21.2151 14.1855Z" fill="#D82C20"/>
<path d="M21.2149 12.9109C20.1474 13.4686 14.6189 15.731 13.4398 16.3524C12.2608 16.9578 11.6076 16.9578 10.6835 16.5117C9.75944 16.0656 3.88034 13.6916 2.81286 13.1818C2.28709 12.9269 2.01624 12.7197 2.01624 12.5126V10.4892C2.01624 10.4892 9.66384 8.81627 10.9066 8.3861C12.1493 7.93999 12.5636 7.92405 13.6151 8.30643C14.6667 8.68881 20.96 9.82002 21.9956 10.2024V12.194C21.9956 12.4011 21.7566 12.6241 21.2149 12.9109Z" fill="#A41E11"/>
<path d="M21.2148 10.8874C20.1473 11.445 14.6187 13.7074 13.4397 14.3288C12.2607 14.9342 11.6075 14.9342 10.6834 14.4881C9.75932 14.042 3.88022 11.6681 2.81274 11.1582C1.74526 10.6484 1.72933 10.2979 2.76494 9.89956C3.80056 9.48531 9.64779 7.19103 10.8905 6.76085C12.1333 6.31474 12.5475 6.29881 13.5991 6.68119C14.6506 7.06357 20.1473 9.24632 21.1829 9.6287C22.2504 10.0111 22.2823 10.3297 21.2148 10.8874Z" fill="#D82C20"/>
<path d="M21.215 9.4857C20.1475 10.0433 14.6189 12.3057 13.4399 12.9271C12.2609 13.5326 11.6077 13.5326 10.6836 13.0864C9.7595 12.6563 3.8804 10.2823 2.81292 9.77248C2.28715 9.51756 2.00037 9.31044 2.00037 9.10331V7.07989C2.00037 7.07989 9.64797 5.40697 10.8907 4.97679C12.1334 4.53068 12.5477 4.51475 13.5992 4.89713C14.6508 5.27951 20.9441 6.41072 21.9797 6.7931V8.78466C21.9957 8.99179 21.7567 9.19891 21.215 9.4857Z" fill="#A41E11"/>
<path d="M21.2148 7.46214C20.1473 8.01978 14.6187 10.2822 13.4397 10.9036C12.2607 11.509 11.6075 11.509 10.6834 11.0629C9.75932 10.6168 3.88022 8.25876 2.81274 7.74892C1.74526 7.23908 1.72933 6.88857 2.76494 6.49026C3.80056 6.07601 9.64779 3.78173 10.8905 3.35155C12.1333 2.90544 12.5475 2.88951 13.5991 3.27189C14.6506 3.65427 20.1473 5.83702 21.1829 6.2194C22.2504 6.60178 22.2823 6.92043 21.2148 7.46214Z" fill="#D82C20"/>
<path d="M14.619 5.5184L12.8983 5.70959L12.4999 6.63368L11.8786 5.59807L9.88701 5.42281L11.3687 4.8811L10.9226 4.05261L12.3247 4.59432L13.6311 4.16414L13.2806 5.0245L14.619 5.5184ZM12.4043 10.0432L9.17004 8.70491L13.8064 8.00388L12.4043 10.0432Z" fill="white"/>
<path d="M7.92743 7.95609C9.29131 7.95609 10.397 7.5281 10.397 7.00014C10.397 6.47218 9.29131 6.04419 7.92743 6.04419C6.56354 6.04419 5.45789 6.47218 5.45789 7.00014C5.45789 7.5281 6.56354 7.95609 7.92743 7.95609Z" fill="white"/>
<path d="M16.6741 5.77319L19.4145 6.8566L16.6741 7.94002V5.77319Z" fill="#7A0C00"/>
<path d="M13.647 6.98406L16.6742 5.77319V7.94002L16.3714 8.06748L13.647 6.98406Z" fill="#AD2115"/>
</svg>
